<?xml version="1.0" ?><svg id="Layer_1_1_" style="enable-background:new 0 0 64 64;" version="1.1" viewBox="0 0 64 64" xml:space="preserve" xmlns="http://www.w3.org/2000/svg" xmlns:xlink="http://www.w3.org/1999/xlink"><path d="M11,26v16h42V26H11z M37,36h-3v3h-4v-3h-3v-4h3v-3h4v3h3V36z" style="fill:#BDD3F4;"/><rect height="4" style="fill:#BDD3F4;" width="42" x="11" y="42"/><rect height="4" style="fill:#BDD3F4;" width="42" x="11" y="22"/><polygon points="30,39 34,39 34,36 37,36 37,32 34,32 34,29 30,29 30,32 27,32 27,36 30,36 " style="fill:#4A81D4;"/><rect height="3" style="fill:#B0CBF4;" width="42" x="11" y="39"/><rect height="3" style="fill:#B0CBF4;" width="42" x="11" y="26"/><rect height="2" width="10" x="14" y="33"/><rect height="2" width="10" x="40" y="33"/><path d="M58.684,20.633c-1.937-0.968-4.188-0.812-5.974,0.367H11.291c-1.788-1.179-4.039-1.334-5.974-0.367  C3.271,21.656,2,23.713,2,26v4c0,6.575,3.14,12.855,8.4,16.8l0.01-0.014C10.577,46.912,10.775,47,11,47h42  c0.225,0,0.423-0.088,0.59-0.214L53.6,46.8C58.86,42.855,62,36.575,62,30v-4C62,23.713,60.729,21.656,58.684,20.633z M12,27h40v14  H12V27z M52,23v2H12v-2H52z M4,30v-4c0-1.548,0.827-2.885,2.211-3.578C7.452,21.802,8.834,21.855,10,22.54v21.31  C6.213,40.284,4,35.247,4,30z M12,45v-2h40v2H12z M60,30c0,5.247-2.213,10.284-6,13.85V22.54c1.165-0.684,2.548-0.737,3.789-0.117  C59.173,23.115,60,24.452,60,26V30z"/><path d="M37,31h-2v-2c0-0.552-0.448-1-1-1h-4c-0.552,0-1,0.448-1,1v2h-2c-0.552,0-1,0.448-1,1v4c0,0.552,0.448,1,1,1h2v2  c0,0.552,0.448,1,1,1h4c0.552,0,1-0.448,1-1v-2h2c0.552,0,1-0.448,1-1v-4C38,31.448,37.552,31,37,31z M36,35h-2  c-0.552,0-1,0.448-1,1v2h-2v-2c0-0.552-0.448-1-1-1h-2v-2h2c0.552,0,1-0.448,1-1v-2h2v2c0,0.552,0.448,1,1,1h2V35z"/></svg>