<?xml version="1.0" ?><svg id="Layer_1_1_" style="enable-background:new 0 0 64 64;" version="1.1" viewBox="0 0 64 64" xml:space="preserve" xmlns="http://www.w3.org/2000/svg" xmlns:xlink="http://www.w3.org/1999/xlink"><path d="M29.641,2l-2,7l5.624,12.185c0.214,0.464,0.044,1.014-0.393,1.277L28.641,25l1,7l-2,1l1,3l-2,2  l0.816,3.265c0.109,0.435-0.085,0.888-0.474,1.111l-6.017,3.438c-0.21,0.12-0.456,0.16-0.692,0.112l-8.636-2.907L9.641,57l4,5H2V2  H29.641z" style="fill:#FFE5CF;"/><path d="M19.968,9.565l0.889,0.356c0.932-1.397,1.131-4.523,0.199-5.92l-0.839,0.336  C20.217,4.336,16.968,6.565,19.968,9.565z" style="fill:#523C00;"/><polygon points="20.218,4.336 20.218,4.336 21.057,4 " style="fill:#2EC200;"/><path d="M57.536,50.464C56.631,49.56,55.381,49,54,49c-1.381,0-2.631,0.56-3.536,1.464  C49.56,51.369,49,52.619,49,54c0,1.381,0.56,2.631,1.464,3.536C51.369,58.44,52.619,59,54,59c1.381,0,2.631-0.56,3.536-1.464  C58.44,56.631,59,55.381,59,54C59,52.619,58.44,51.369,57.536,50.464z" style="fill:#D64528;"/><path d="M57.536,54.536C56.631,55.44,55.381,56,54,56c-1.381,0-2.631-0.56-3.536-1.464  c-0.56-0.56-0.965-1.262-1.21-2.036C49.104,52.976,49,53.474,49,54c0,1.381,0.56,2.631,1.464,3.536C51.369,58.44,52.619,59,54,59  c1.381,0,2.631-0.56,3.536-1.464C58.44,56.631,59,55.381,59,54c0-0.526-0.104-1.024-0.254-1.5  C58.501,53.273,58.095,53.976,57.536,54.536z" style="fill:#C43F25;"/><circle cx="52" cy="52" r="1" style="fill:#ED5D40;"/><path d="M26.109,24.895l0.895-1.789c-0.315-0.158-0.421-0.429-0.456-0.576c-0.034-0.147-0.062-0.436,0.15-0.718l1.658-2.211  l-1.6-1.2l-1.658,2.211c-0.512,0.682-0.692,1.548-0.497,2.378S25.347,24.513,26.109,24.895z"/><path d="M8.566,56.858c-0.039,0.273,0.037,0.551,0.209,0.766l4,5l1.563-1.249l-3.73-4.663l1.767-12.362l7.496,2.524  c0.04,0.014,0.081,0.024,0.123,0.033c0.13,0.026,0.261,0.039,0.392,0.039c0.346,0,0.688-0.09,0.993-0.264l6.016-3.438  c0.775-0.442,1.166-1.355,0.949-2.222l-0.679-2.716l1.6-1.6c0.268-0.268,0.361-0.664,0.241-1.023l-0.726-2.177l1.225-0.612  c0.385-0.192,0.604-0.61,0.543-1.036l-0.906-6.342l3.661-2.197c0.877-0.526,1.215-1.624,0.787-2.553L28.62,8.918l1.898-6.643  l-1.924-0.55l-2,7c-0.065,0.23-0.046,0.477,0.054,0.694l5.624,12.186l-4.23,2.538c-0.345,0.207-0.532,0.601-0.476,0.999l0.898,6.286  l-1.21,0.605l-6.53,0.933l-1.721-0.86l-0.895,1.789l2,1c0.14,0.07,0.293,0.105,0.447,0.105c0.047,0,0.095-0.003,0.142-0.01  l6.174-0.882l0.54,1.622l-1.563,1.563c-0.248,0.249-0.349,0.609-0.263,0.95l0.815,3.265l-6.007,3.433l-14.52-4.889l-0.639,1.896  l5.209,1.754L8.566,56.858z"/><path d="M13.186,7.929l10,4l0.742-1.857L22.2,9.38c0.503-1.43,0.621-3.345,0.172-4.829l1.556-0.622l-0.742-1.857l-2.5,1  l-0.839,0.335c0,0,0,0-0.001,0l-6.66,2.664c-0.38,0.152-0.629,0.52-0.629,0.929S12.806,7.776,13.186,7.929z M19.702,6.863  c0.058-0.673,0.535-1.217,0.836-1.497c0.205,0.93,0.146,2.223-0.147,3.185C19.888,7.962,19.656,7.396,19.702,6.863z M17.763,6.394  c-0.016,0.092-0.042,0.178-0.051,0.275c-0.029,0.312-0.018,0.622,0.033,0.929L16.249,7L17.763,6.394z"/><path d="M42.293,30.293l-3,3c-0.391,0.391-0.391,1.023,0,1.414l3,3l1.414-1.414L42.414,35H53v6h2V8c0-0.552-0.447-1-1-1H42.414  l1.293-1.293l-1.414-1.414l-3,3c-0.391,0.391-0.391,1.023,0,1.414l3,3l1.414-1.414L42.414,9H53v13H42.414l1.293-1.293l-1.414-1.414  l-3,3c-0.391,0.391-0.391,1.023,0,1.414l3,3l1.414-1.414L42.414,24H53v9H42.414l1.293-1.293L42.293,30.293z"/><rect height="1" width="2" x="52" y="55"/><rect height="1" width="2" x="54" y="52"/><path d="M59.91,53c-0.154-0.909-0.51-1.749-1.025-2.471l0.822-0.822l-1.414-1.414l-0.822,0.822C56.749,48.6,55.909,48.244,55,48.09  V46h-2v2.09c-0.909,0.154-1.749,0.51-2.471,1.025l-0.822-0.822l-1.414,1.414l0.822,0.822C48.6,51.251,48.244,52.091,48.09,53H46v2  h2.09c0.154,0.909,0.51,1.749,1.025,2.471l-0.822,0.822l1.414,1.414l0.822-0.822C51.251,59.4,52.091,59.756,53,59.91V62h2v-2.09  c0.909-0.154,1.749-0.51,2.471-1.025l0.822,0.822l1.414-1.414l-0.822-0.822C59.4,56.749,59.756,55.909,59.91,55H62v-2H59.91z M58,54  c0,2.206-1.794,4-4,4s-4-1.794-4-4s1.794-4,4-4S58,51.794,58,54z"/><rect height="2" width="2" x="43" y="46"/><rect height="2" width="2" x="36" y="54"/><rect height="2" width="2" x="58" y="41"/><rect height="2" width="2" x="43" y="58"/></svg>